<svg viewBox="0 0 800 800" xmlns="http://www.w3.org/2000/svg"><path d="M398.90765433047625,125.79981546347295 L398.9289542632997,114.67670686024462 M-83.49129113413107,404.00386087823927 L-83.5235978333182,392.84979655780995 M398.90765433047625,125.79981546347295 L-83.49129113413107,404.00386087823927 M398.9289542632997,114.67670686024462 L-83.5235978333182,392.84979655780995 M12.987065439900675,460.0168492861621 L12.965479589145104,448.85659390153427 M-83.49129113413107,404.00386087823927 L12.987065439900675,460.0168492861621 M-83.5235978333182,392.84979655780995 L12.965479589145104,448.85659390153427 M495.3860188453001,181.19388038197854 L495.41803963008533,170.06458073527375 M12.987065439900675,460.0168492861621 L495.3860188453001,181.19388038197854 M12.965479589145104,448.85659390153427 L495.41803963008533,170.06458073527375 M495.3860188453001,181.19388038197854 L398.90765433047625,125.79981546347295 M495.41803963008533,170.06458073527375 L398.9289542632997,114.67670686024462" stroke="black"  stroke-width="4"  fill="red"/>
<path d="M592.0785417719216,236.7109065988604 L592.1213309805911,225.57541581326672 M109.68077548842803,516.154866686067 L109.66995845690911,504.9884203720446 M592.0785417719216,236.7109065988604 L109.68077548842803,516.154866686067 M592.1213309805911,225.57541581326672 L109.66995845690911,504.9884203720446 M206.59056086667277,572.4183321695468 L206.59056086667277,561.2456951082168 M109.68077548842803,516.154866686067 L206.59056086667277,572.4183321695468 M109.66995845690911,504.9884203720446 L206.59056086667277,561.2456951082168 M688.9859369717132,292.3513039851131 L689.0395424141074,281.2096220104462 M206.59056086667277,572.4183321695468 L688.9859369717132,292.3513039851131 M206.59056086667277,561.2456951082168 L689.0395424141074,281.2096220104462 M688.9859369717132,292.3513039851131 L592.0785417719216,236.7109065988604 M689.0395424141074,281.2096220104462 L592.1213309805911,225.57541581326672" stroke="black"  stroke-width="4"  fill="red"/>
<path d="M786.1089214822942,348.11548423540637 L786.1733912075823,336.9676110671143 M303.7171466596339,628.8076667033256 L303.7280121463542,617.6288391244791 M786.1089214822942,348.11548423540637 L303.7171466596339,628.8076667033256 M786.1733912075823,336.9676110671143 L303.7280121463542,617.6288391244791 M401.06126120017166,685.3232931397554 L401.0830408731847,674.1382753213129 M303.7171466596339,628.8076667033256 L401.06126120017166,685.3232931397554 M303.7280121463542,617.6288391244791 L401.0830408731847,674.1382753213129 M883.448215535215,404.00386087823927 L883.5235978333183,392.8497965578101 M401.06126120017166,685.3232931397554 L883.448215535215,404.00386087823927 M401.0830408731847,674.1382753213129 L883.5235978333183,392.8497965578101 M883.448215535215,404.00386087823927 L786.1089214822942,348.11548423540637 M883.5235978333183,392.8497965578101 L786.1733912075823,336.9676110671143" stroke="black"  stroke-width="4"  fill="red"/></svg>